<?xml version="1.0" standalone="no"?>
<!DOCTYPE svg PUBLIC "-//W3C//DTD SVG 20010904//EN"
 "http://www.w3.org/TR/2001/REC-SVG-20010904/DTD/svg10.dtd">
<svg version="1.0" xmlns="http://www.w3.org/2000/svg"
 width="64.000000pt" height="64.000000pt" viewBox="0 0 64.000000 64.000000"
 preserveAspectRatio="xMidYMid meet">
<metadata>
Created by potrace 1.14, written by Peter Selinger 2001-2017
</metadata>
<g transform="translate(0.000000,64.000000) scale(0.100000,-0.100000)"
fill="#000000" stroke="none">
<path d="M27 584 c-3 -3 -3 -12 -1 -19 3 -7 1 -16 -4 -19 -6 -3 -7 -20 -2 -40
4 -19 3 -41 -3 -52 -7 -12 -7 -19 1 -22 8 -2 8 -11 1 -29 -7 -19 -6 -28 2 -33
8 -6 8 -13 0 -29 -9 -16 -9 -21 1 -21 9 0 9 -3 1 -11 -14 -14 4 -59 24 -59 7
0 13 -5 13 -11 0 -5 4 -8 9 -4 5 3 12 1 16 -5 4 -6 11 -8 16 -5 5 4 9 2 9 -4
0 -6 7 -8 15 -5 12 5 14 2 8 -12 -5 -16 -4 -17 8 -7 11 9 18 8 31 -1 10 -7 16
-15 13 -18 -3 -2 5 -4 18 -3 12 1 28 -2 35 -8 9 -7 11 -5 6 8 -5 13 -4 16 4
11 7 -4 12 -2 12 3 0 6 8 11 18 11 13 0 14 -2 4 -9 -11 -7 -11 -9 2 -14 9 -4
13 -12 10 -20 -3 -8 3 -20 13 -28 16 -12 17 -12 8 1 -5 9 -2 7 7 -3 10 -11 18
-16 18 -12 0 4 7 2 15 -5 8 -6 20 -8 26 -4 8 4 9 3 5 -4 -10 -16 7 -15 23 0
11 11 12 10 6 -2 -4 -8 1 -6 12 5 11 11 18 25 15 30 -3 6 1 4 10 -3 11 -9 18
-10 23 -2 3 5 3 10 -1 10 -4 0 1 9 11 20 10 11 23 20 29 20 6 0 17 9 24 21 7
11 19 18 27 15 10 -3 12 0 8 11 -4 10 -2 14 5 10 6 -4 20 6 32 23 12 16 16 30
10 30 -8 0 -8 6 0 20 8 14 8 20 0 20 -8 0 -8 6 0 20 8 14 8 20 0 20 -8 0 -8 6
0 20 8 14 8 20 0 20 -8 0 -8 6 0 20 8 14 8 20 0 20 -8 0 -8 6 0 20 8 14 8 20
0 20 -8 0 -8 6 0 20 8 14 8 20 0 20 -6 0 -8 5 -5 10 3 6 3 19 0 30 -6 18 -15
20 -95 20 -86 0 -88 0 -83 -22 3 -17 2 -19 -5 -10 -7 11 -11 9 -15 -8 -4 -15
-10 -19 -19 -14 -7 5 -16 9 -20 10 -5 1 -11 2 -14 3 -4 0 0 9 7 18 10 11 10
14 2 9 -7 -4 -13 -2 -13 3 0 12 -321 16 -333 5z"/>
</g>
</svg>
