<?xml version="1.0" standalone="no"?>
<!DOCTYPE svg PUBLIC "-//W3C//DTD SVG 20010904//EN"
 "http://www.w3.org/TR/2001/REC-SVG-20010904/DTD/svg10.dtd">
<svg version="1.0" xmlns="http://www.w3.org/2000/svg"
 width="64.000000pt" height="64.000000pt" viewBox="0 0 64.000000 64.000000"
 preserveAspectRatio="xMidYMid meet">
<metadata>
Created by potrace 1.14, written by Peter Selinger 2001-2017
</metadata>
<g transform="translate(0.000000,64.000000) scale(0.100000,-0.100000)"
fill="#000000" stroke="none">
<path d="M50 580 c0 -6 55 -10 145 -10 90 0 145 4 145 10 0 6 -55 10 -145 10
-90 0 -145 -4 -145 -10z"/>
<path d="M460 580 c0 -6 28 -10 65 -10 37 0 65 4 65 10 0 6 -28 10 -65 10 -37
0 -65 -4 -65 -10z"/>
<path d="M27 409 c-9 -139 -5 -156 42 -177 14 -6 52 -23 84 -37 43 -19 68 -24
92 -19 30 5 35 3 49 -24 10 -20 30 -36 61 -47 42 -17 46 -17 72 1 39 25 165
134 181 155 9 13 10 48 3 146 l-8 128 -2 -125 -1 -125 -85 -67 c-46 -38 -87
-68 -91 -68 -4 0 -12 -7 -19 -16 -9 -13 -16 -14 -31 -6 -10 6 -27 13 -36 16
-10 3 -18 15 -18 27 0 40 -51 61 -89 37 -16 -10 -28 -8 -68 11 -26 13 -64 31
-83 40 l-35 17 -5 129 -5 130 -8 -126z"/>
<path d="M505 449 c-33 -28 -69 -57 -80 -66 -17 -14 -19 -26 -17 -75 2 -32 8
-56 13 -52 5 3 7 9 4 14 -3 5 -1 29 6 53 9 39 17 48 59 71 52 28 60 31 60 17
0 -5 -10 -12 -22 -14 -20 -4 -20 -4 4 -6 14 0 29 -7 31 -13 3 -7 6 17 6 55 1
37 0 67 -1 66 -2 0 -30 -23 -63 -50z"/>
<path d="M98 433 c-13 -3 -18 -14 -18 -39 0 -40 15 -45 24 -9 4 14 11 25 16
25 5 0 12 -11 16 -25 9 -37 24 -30 24 10 0 19 -4 35 -9 35 -5 0 -15 2 -23 4
-7 2 -21 2 -30 -1z"/>
<path d="M288 403 c7 -3 16 -2 19 1 4 3 -2 6 -13 5 -11 0 -14 -3 -6 -6z"/>
<path d="M362 360 c0 -14 2 -19 5 -12 2 6 2 18 0 25 -3 6 -5 1 -5 -13z"/>
<path d="M486 357 c-22 -16 -19 -82 4 -82 8 0 16 9 18 20 6 30 22 43 22 18 0
-27 19 -40 31 -22 34 54 -23 104 -75 66z"/>
<path d="M218 349 c-11 -6 -18 -22 -18 -39 0 -35 17 -41 22 -8 4 31 26 34 34
4 9 -38 24 -32 24 9 0 19 -4 35 -9 35 -5 0 -15 2 -23 5 -7 2 -21 0 -30 -6z"/>
</g>
</svg>
